#!OML:ASF X:\für Bonn\!DataBase\2005_08_10_Bjorn_Final\c3d\bjorn.ASF
:FULLY-SPECIFIED
:DEGREES
79
root 1.58927 19.2236 2.33498 -186.278 0.257069 -211.736
lowerback 9.63771 -3.05846 8.6459
upperback 14.4048 -0.69907 -4.90323
thorax 10.0393 2.08655 -10.0798
lowerneck -0.575053 12.7465 1.28726
upperneck 18.1955 19.3761 -19.1011
head 7.79958 7.48042 -5.03006
rclavicle 3.65764e-014 7.63333e-014
rhumerus -41.739 -28.0919 -49.2597
rradius 59.1737
rwrist -6.91752
rhand -14.0029 15.9721
rfingers 7.12502
rthumb 12.1263 -13.6564
lclavicle 3.65764e-014 7.63333e-014
lhumerus -17.7433 7.70367 52.6408
lradius 90.0106
lwrist -37.555
lhand -56.3098 -40.1005
lfingers 7.12502
lthumb -28.6323 -12.2741
rfemur -7.62084 -9.78082 -17.7384
rtibia 34.8685
rfoot -8.44663 22.8262
rtoes -2.33227
lfemur -18.3679 -8.89224 20.2344
ltibia 14.5149
lfoot 1.11953 25.2164
ltoes -10.6071
80
root 1.56561 19.2076 2.28657 -185.676 -0.174867 -211.442
lowerback 8.40173 -3.1786 9.34569
upperback 13.931 -1.21799 -4.62681
thorax 10.0694 1.75201 -10.1868
lowerneck -0.234248 12.709 1.26658
upperneck 18.493 19.281 -19.0389
head 7.81689 7.40659 -5.04816
rclavicle -7.79236e-014 -1.46306e-013
rhumerus -43.7513 -29.3919 -45.8104
rradius 57.2122
rwrist -7.90557
rhand -14.1968 16.1401
rfingers 7.12502
rthumb 11.9393 -13.4995
lclavicle -7.79236e-014 -1.46306e-013
lhumerus -17.3035 8.28851 51.9602
lradius 88.4382
lwrist -37.8808
lhand -56.574 -39.7157
lfingers 7.12502
lthumb -28.8846 -11.9321
rfemur -8.03223 -10.3643 -17.6709
rtibia 35.4459
rfoot -8.44352 23.2959
rtoes -3.27285
lfemur -19.6241 -8.42482 19.746
ltibia 16.0674
lfoot -0.516838 23.1238
ltoes -13.5152
81
root 1.54528 19.1937 2.24866 -185.072 -0.630279 -211.173
lowerback 7.26103 -3.3045 9.95876
upperback 13.4683 -1.72706 -4.34353
thorax 10.063 1.42203 -10.2446
lowerneck 0.0535328 12.6581 1.25062
upperneck 18.6293 19.1649 -19.031
head 7.79354 7.33404 -5.08081
rclavicle 2.22639e-014 5.40694e-014
rhumerus -45.63 -30.5195 -42.4685
rradius 55.3262
rwrist -9.41403
rhand -14.7526 15.0864
rfingers 7.12502
rthumb 11.4033 -14.5835
lclavicle 2.22639e-014 5.40694e-014
lhumerus -16.8199 8.94757 51.2101
lradius 86.9883
lwrist -38.4055
lhand -56.8149 -39.0276
lfingers 7.12502
lthumb -29.1147 -11.2836
rfemur -8.45193 -10.8143 -17.5793
rtibia 35.9749
rfoot -8.81606 23.6738
rtoes -5.72652
lfemur -20.7498 -7.90567 19.1017
ltibia 17.7291
lfoot -2.76294 21.5228
ltoes -14.563
82
root 1.53142 19.1826 2.22213 -184.551 -1.02945 -210.864
lowerback 6.3054 -3.41139 10.5543
upperback 13.0394 -2.17222 -4.04431
thorax 10.0088 1.13308 -10.2779
lowerneck 0.295834 12.5797 1.24592
upperneck 18.6256 19.0049 -19.0153
head 7.72577 7.25876 -5.11064
rclavicle -3.18055e-014 -9.85972e-014
rhumerus -47.4794 -31.5835 -39.153
rradius 53.5006
rwrist -11.421
rhand -15.4113 13.9881
rfingers 7.12502
rthumb 10.768 -15.7159
lclavicle -3.18055e-014 -9.85972e-014
lhumerus -16.1088 9.65348 50.4123
lradius 85.4856
lwrist -39.0223
lhand -56.9568 -38.4023
lfingers 7.12502
lthumb -29.2503 -10.6819
rfemur -8.86851 -11.1077 -17.3816
rtibia 36.5118
rfoot -9.34979 23.962
rtoes -8.31995
lfemur -21.3452 -7.36211 18.302
ltibia 19.0082
lfoot -4.29497 20.5485
ltoes -13.5092
83
root 1.51948 19.1662 2.20467 -184.127 -1.36144 -210.563
lowerback 5.5228 -1.03418 11.2755
upperback 12.804 -3.1575 -3.29326
thorax 10.2808 -1.01594 -10.2057
lowerneck 0.429764 12.479 1.24793
upperneck 18.5062 18.8302 -19.096
head 7.64834 7.17563 -5.16568
rclavicle -4.45278e-014 -8.26944e-014
rhumerus -49.3427 -32.6193 -35.7491
rradius 51.6256
rwrist -13.7807
rhand -16.1425 13.1254
rfingers 7.12502
rthumb 10.0627 -16.614
lclavicle -4.45278e-014 -8.26944e-014
lhumerus -15.2308 10.3482 49.675
lradius 83.9315
lwrist -39.4013
lhand -57.0307 -38.3841
lfingers 7.12502
lthumb -29.3208 -10.676
rfemur -9.29107 -11.2528 -17.161
rtibia 37.0873
rfoot -9.68779 24.1943
rtoes -9.53196
lfemur -21.3874 -6.81105 17.3417
ltibia 19.8914
lfoot -4.06821 20.8196
ltoes -9.46293
84
root 1.50272 19.139 2.19214 -183.787 -1.62634 -210.266
lowerback 4.92767 -1.28094 11.6269
upperback 12.4426 -3.4594 -2.96021
thorax 10.1293 -1.13331 -10.0356
lowerneck 0.4733 12.381 1.1366
upperneck 18.326 18.6582 -19.1107
head 7.54995 7.09446 -5.17346
rclavicle -4.77083e-015 -2.54444e-014
rhumerus -51.2587 -33.3979 -32.324
rradius 49.7373
rwrist -16.5482
rhand -17.0683 12.8806
rfingers 7.12502
rthumb 9.16947 -16.9001
lclavicle -4.77083e-015 -2.54444e-014
lhumerus -14.3656 10.9372 48.9447
lradius 82.4137
lwrist -39.505
lhand -57.1717 -38.8294
lfingers 7.12502
lthumb -29.4554 -11.1449
rfemur -9.71755 -11.2704 -16.9473
rtibia 37.6999
rfoot -9.86639 24.3836
rtoes -9.58231
lfemur -21.073 -6.24384 16.3458
ltibia 20.5582
lfoot -2.55372 21.8506
ltoes -8.66576
85
root 1.48663 19.106 2.18415 -183.53 -1.76386 -209.972
lowerback 4.49605 -1.41302 11.8845
upperback 12.1212 -3.61004 -2.59484
thorax 9.97361 -1.19323 -9.77109
lowerneck 0.467297 12.2132 1.21449
upperneck 18.0941 18.4053 -19.2023
head 7.45838 6.98941 -5.23834
rclavicle -1.27222e-014 -1.27222e-014
rhumerus -53.4224 -33.9102 -28.902
rradius 47.9651
rwrist -19.5734
rhand -17.5759 12.6521
rfingers 7.12502
rthumb 8.67958 -17.1495
lclavicle -1.27222e-014 -1.27222e-014
lhumerus -13.4342 11.2862 48.2283
lradius 80.9637
lwrist -39.3865
lhand -57.2642 -39.5056
lfingers 7.12502
lthumb -29.5437 -11.8367
rfemur -10.1883 -11.1445 -16.7129
rtibia 38.3695
rfoot -10.1014 24.5796
rtoes -9.32308
lfemur -20.4403 -5.61635 15.3815
ltibia 21.1141
lfoot -0.770023 23.2824
ltoes -6.70037
86
root 1.47444 19.0733 2.18203 -183.361 -1.83569 -209.703
lowerback 4.23731 -1.45595 12.0241
upperback 11.8424 -3.64041 -2.19709
thorax 9.80228 -1.21387 -9.39702
lowerneck 0.374972 11.9849 1.43465
upperneck 17.8344 18.0873 -19.3488
head 7.3829 6.86088 -5.34288
rclavicle -6.36111e-015 -4.45278e-014
rhumerus -55.6803 -34.0472 -25.6643
rradius 46.2668
rwrist -22.5449
rhand -17.7474 11.8687
rfingers 7.12502
rthumb 8.51414 -17.9396
lclavicle -6.36111e-015 -4.45278e-014
lhumerus -12.4932 11.08 47.3673
lradius 79.5934
lwrist -38.7697
lhand -57.3464 -40.2597
lfingers 7.12502
lthumb -29.6222 -12.6047
rfemur -10.6416 -10.896 -16.4745
rtibia 39.0702
rfoot -10.4515 24.7544
rtoes -8.90024
lfemur -19.6237 -4.99084 14.3431
ltibia 21.7059
lfoot 1.49002 24.8595
ltoes -3.76706
87
root 1.46105 19.0342 2.18389 -183.312 -1.88649 -209.461
lowerback 4.14581 -1.49667 12.0491
upperback 11.6516 -3.68688 -1.76433
thorax 9.63769 -1.26459 -8.91829
lowerneck 0.138016 11.7712 1.5581
upperneck 17.4517 17.799 -19.5426
head 7.29288 6.74025 -5.43448
rclavicle -2.8625e-014 -4.45278e-014
rhumerus -57.5913 -33.856 -22.964
rradius 44.6721
rwrist -25.1325
rhand -18.425 10.6735
rfingers 7.12502
rthumb 7.86017 -19.1604
lclavicle -2.8625e-014 -4.45278e-014
lhumerus -11.5295 10.6705 46.4133
lradius 78.2558
lwrist -37.9195
lhand -57.4212 -40.5421
lfingers 7.12502
lthumb -29.6936 -12.8998
rfemur -11.012 -10.7752 -16.234
rtibia 39.7682
rfoot -11.5218 24.7694
rtoes -10.7272
lfemur -18.9624 -4.39544 13.2253
ltibia 22.5438
lfoot 5.21698 26.0331
ltoes -5.69463
88
root 1.44473 18.9853 2.19041 -183.407 -1.92858 -209.234
lowerback 4.22686 -1.58585 12.0329
upperback 11.5463 -3.81523 -1.34749
thorax 9.45656 -1.37019 -8.43429
lowerneck -0.154092 11.6129 1.61171
upperneck 16.9661 17.5878 -19.8053
head 7.19012 6.65143 -5.52622
rclavicle 4.29375e-014 1.01778e-013
rhumerus -59.0289 -33.3527 -20.994
rradius 43.1634
rwrist -27.2915
rhand -18.883 9.9268
rfingers 7.12502
rthumb 7.41808 -19.9231
lclavicle 4.29375e-014 1.01778e-013
lhumerus -10.6479 10.3735 45.3576
lradius 77.0904
lwrist -37.218
lhand -57.4299 -40.0655
lfingers 7.12502
lthumb -29.7018 -12.4246
rfemur -11.2396 -10.5715 -16.019
rtibia 40.4088
rfoot -12.5942 24.7199
rtoes -12.2198
lfemur -18.3266 -0.64943 11.7939
ltibia 23.7542
lfoot 9.12124 23.5111
ltoes -7.03888
89
root 1.43084 18.9381 2.19996 -183.597 -1.951 -209.001
lowerback 4.39227 -1.71679 12.0116
upperback 11.5229 -4.02027 -0.976856
thorax 9.30726 -1.51705 -8.00274
lowerneck -0.465014 11.5002 1.60234
upperneck 16.3223 17.4224 -20.0792
head 7.04125 6.59566 -5.60355
rclavicle -5.08889e-014 -1.145e-013
rhumerus -60.0472 -32.8114 -19.6516
rradius 41.6503
rwrist -29.0577
rhand -18.7143 10.1299
rfingers 7.12502
rthumb 7.58091 -19.7143
lclavicle -5.08889e-014 -1.145e-013
lhumerus -9.886 10.4208 44.2577
lradius 76.1676
lwrist -37.0321
lhand -57.4288 -38.8948
lfingers 7.12502
lthumb -29.7008 -11.2538
rfemur -11.3491 -10.3064 -15.7784
rtibia 40.9628
rfoot -13.6438 24.5993
rtoes -13.3336
lfemur -17.7722 1.23623 10.7441
ltibia 25.3146
lfoot 10.6906 22.1314
ltoes -5.81702
90
root 1.4216 18.8985 2.21149 -183.838 -1.91324 -208.782
lowerback 4.60913 -1.831 11.9705
upperback 11.553 -4.20882 -0.680347
thorax 9.19483 -1.65429 -7.64332
lowerneck -0.715162 11.3923 1.8282
upperneck 15.5659 17.2557 -20.4919
head 6.87899 6.56138 -5.76576
rclavicle -4.77083e-015 -1.90833e-014
rhumerus -60.8254 -32.314 -18.8021
rradius 40.0418
rwrist -30.5235
rhand -18.5698 10.3088
rfingers 7.12502
rthumb 7.72039 -19.5303
lclavicle -4.77083e-015 -1.90833e-014
lhumerus -9.1782 10.3418 42.9518
lradius 75.4148
lwrist -36.889
lhand -57.4134 -37.1533
lfingers 7.12502
lthumb -29.6861 -9.50965
rfemur -11.3837 -10.006 -15.5119
rtibia 41.404
rfoot -14.6665 24.4031
rtoes -14.3337
lfemur -17.2507 2.23047 9.8661
ltibia 27.1736
lfoot 11.1055 20.989
ltoes -2.53777
91
root 1.41401 18.8637 2.22418 -184.117 -1.81698 -208.582
lowerback 4.86162 -1.90307 11.9462
upperback 11.6288 -4.34603 -0.435417
thorax 9.12648 -1.76093 -7.35112
lowerneck -0.969255 11.2676 2.06118
upperneck 14.774 17.0494 -20.8679
head 6.69874 6.51594 -5.92024
rclavicle 3.65764e-014 1.27222e-013
rhumerus -61.4453 -31.9338 -18.3343
rradius 38.312
rwrist -31.4794
rhand -18.3664 10.2502
rfingers 7.12502
rthumb 7.91673 -19.5816
lclavicle 3.65764e-014 1.27222e-013
lhumerus -8.41714 10.1941 41.5828
lradius 74.7789
lwrist -36.7932
lhand -57.2651 -35.487
lfingers 7.12502
lthumb -29.5446 -7.81827
rfemur -11.3726 -9.65446 -15.2412
rtibia 41.7544
rfoot -15.3528 24.2252
rtoes -13.9416
lfemur -16.7708 3.0262 9.01256
ltibia 29.2689
lfoot 12.0995 18.8949
ltoes -1.75003
92
root 1.40675 18.8329 2.23639 -184.358 -1.63459 -208.421
lowerback 5.06235 -1.9153 11.9144
upperback 11.7309 -4.41395 -0.199794
thorax 9.13555 -1.82776 -7.07073
lowerneck -1.15979 11.1263 2.15263
upperneck 13.8964 16.7856 -21.2
head 6.4572 6.44724 -6.04717
rclavicle -8.74653e-014 -1.65389e-013
rhumerus -61.9285 -31.6729 -18.1123
rradius 36.4184
rwrist -31.8542
rhand -18.0275 10.0661
rfingers 7.12502
rthumb 8.24379 -19.7531
lclavicle -8.74653e-014 -1.65389e-013
lhumerus -7.61384 10.0116 40.2799
lradius 74.2902
lwrist -36.5829
lhand -56.8464 -34.2584
lfingers 7.12502
lthumb -29.1448 -6.51963
rfemur -11.4321 -9.28102 -14.9787
rtibia 42.0644
rfoot -15.7637 24.0802
rtoes -12.4198
lfemur -16.3511 3.73529 8.14858
ltibia 31.4948
lfoot 12.7607 16.1827
ltoes -2.49999
93
root 1.39836 18.8047 2.24817 -184.542 -1.36844 -208.28
lowerback 5.22584 -1.874 11.9422
upperback 11.8236 -4.40567 0.00949734
thorax 9.16928 -1.84591 -6.85461
lowerneck -1.36732 10.9654 2.12526
upperneck 13.0925 16.4852 -21.4343
head 6.21995 6.35066 -6.12742
rclavicle -4.6118e-014 -1.24042e-013
rhumerus -62.2304 -31.3186 -18.3362
rradius 34.5372
rwrist -31.335
rhand -17.8957 9.19796
rfingers 7.12502
rthumb 8.37101 -20.6162
lclavicle -4.6118e-014 -1.24042e-013
lhumerus -6.79662 9.74013 39.0625
lradius 73.9043
lwrist -36.2396
lhand -56.4094 -34.041
lfingers 7.12502
lthumb -28.7274 -6.23071
rfemur -11.6027 -8.89508 -14.7091
rtibia 42.3875
rfoot -16.3814 23.8136
rtoes -11.7103
lfemur -15.9643 4.36496 7.28381
ltibia 33.7329
lfoot 13.6291 13.0219
ltoes -4.6823
